<svg width="142" height="114" viewBox="0 0 142 114" fill="none" xmlns="http://www.w3.org/2000/svg">
<g opacity="0.06">
<path d="M121.863 52.8053L86.0893 105.38L4.64249 99.3458L-30.8993 25.7771L15.0605 -41.7678L96.5621 -35.7439L123.84 20.798L133.287 21.5002L101.888 -43.5714L10.9397 -50.2975L-40.3462 25.0748L-0.705802 107.206L90.2427 113.932L131.342 53.5297L121.863 52.8053Z" fill="url(#paint0_linear_19894_7156)"/>
<path d="M11.2166 54.4818L1.43221 47.8242L23.7574 15.0139L56.3721 37.206C59.481 39.2713 63.2781 40.0296 66.9419 39.3169C70.6058 38.6043 73.8417 36.4779 75.9498 33.3977C77.0058 31.8838 77.741 30.1699 78.11 28.3613C78.479 26.5528 78.474 24.6878 78.0955 22.8813C77.7757 21.0648 77.0921 19.3317 76.0858 17.786C75.0794 16.2403 73.7711 14.9139 72.2394 13.8865L39.6248 -8.30556L46.4156 -18.2856L79.0628 3.92864C84.7552 7.85202 88.6717 13.861 89.9633 20.6528C91.2549 27.4445 89.8174 34.4717 85.9625 40.2107C83.0205 44.6095 78.7764 47.9781 73.8245 49.8447C69.1784 51.6928 64.0942 52.1465 59.1942 51.1504C54.6044 49.7788 50.2595 47.692 46.3198 44.9668L26.751 31.6516L11.2166 54.4818Z" fill="url(#paint1_linear_19894_7156)"/>
<path d="M55.9967 83.7589L44.5816 75.9917L46.2281 54.6383C49.8571 56.7957 53.7717 58.4314 57.8568 59.4971L55.9967 83.7589Z" fill="url(#paint2_linear_19894_7156)"/>
<path d="M122.481 37.2412L126.68 45.5856L135.983 46.4287L141.376 38.5034L137.288 29.9959L127.873 29.3159L122.481 37.2412Z" fill="url(#paint3_linear_19894_7156)"/>
</g>
<defs>
<linearGradient id="paint0_linear_19894_7156" x1="141.385" y1="38.5224" x2="-56.1356" y2="-2.40897" gradientUnits="userSpaceOnUse">
<stop stop-color="#7748FC"/>
<stop offset="1" stop-color="#39D0D8"/>
</linearGradient>
<linearGradient id="paint1_linear_19894_7156" x1="141.385" y1="38.5224" x2="-56.1356" y2="-2.40897" gradientUnits="userSpaceOnUse">
<stop stop-color="#7748FC"/>
<stop offset="1" stop-color="#39D0D8"/>
</linearGradient>
<linearGradient id="paint2_linear_19894_7156" x1="141.385" y1="38.5224" x2="-56.1356" y2="-2.40897" gradientUnits="userSpaceOnUse">
<stop stop-color="#7748FC"/>
<stop offset="1" stop-color="#39D0D8"/>
</linearGradient>
<linearGradient id="paint3_linear_19894_7156" x1="141.385" y1="38.5224" x2="-56.1356" y2="-2.40897" gradientUnits="userSpaceOnUse">
<stop stop-color="#7748FC"/>
<stop offset="1" stop-color="#39D0D8"/>
</linearGradient>
</defs>
</svg>
