<svg width="65" height="58" viewBox="0 0 65 58" fill="none" xmlns="http://www.w3.org/2000/svg">
  <g opacity="0.2">
    <mask id="path-1-inside-1_17360_29207" fill="white">
      <path
        d="M56.1746 48.7823L53.2719 46.4105L60.3874 37.7024C64.3172 32.893 63.6042 25.8085 58.7948 21.8787C53.9854 17.9489 46.9009 18.662 42.9711 23.4713L35.8556 32.1795L32.9529 29.8076C31.3498 28.4977 28.9883 28.7354 27.6784 30.3385L13.4473 47.7547C12.1374 49.3579 12.3751 51.7193 13.9782 53.0293L37.1999 72.004C38.803 73.3139 41.1645 73.0763 42.4744 71.4731L56.7054 54.0569C58.0154 52.4538 57.7777 50.0923 56.1746 48.7823ZM45.8739 25.8432C48.4937 22.6369 53.2167 22.1616 56.4229 24.7814C59.6292 27.4013 60.1045 32.1243 57.4847 35.3305L50.3692 44.0387L38.7583 34.5513L45.8739 25.8432ZM39.5717 69.1013L16.35 50.1266L30.5811 32.7103L53.8027 51.685L39.5717 69.1013Z" />
    </mask>
    <path
      d="M56.1746 48.7823L53.2719 46.4105L60.3874 37.7024C64.3172 32.893 63.6042 25.8085 58.7948 21.8787C53.9854 17.9489 46.9009 18.662 42.9711 23.4713L35.8556 32.1795L32.9529 29.8076C31.3498 28.4977 28.9883 28.7354 27.6784 30.3385L13.4473 47.7547C12.1374 49.3579 12.3751 51.7193 13.9782 53.0293L37.1999 72.004C38.803 73.3139 41.1645 73.0763 42.4744 71.4731L56.7054 54.0569C58.0154 52.4538 57.7777 50.0923 56.1746 48.7823ZM45.8739 25.8432C48.4937 22.6369 53.2167 22.1616 56.4229 24.7814C59.6292 27.4013 60.1045 32.1243 57.4847 35.3305L50.3692 44.0387L38.7583 34.5513L45.8739 25.8432ZM39.5717 69.1013L16.35 50.1266L30.5811 32.7103L53.8027 51.685L39.5717 69.1013Z"
      fill="url(#paint0_linear_17360_29207)" />
    <path
      d="M53.2719 46.4105L50.3692 44.0387L47.9973 46.9414L50.9 49.3132L53.2719 46.4105ZM35.8556 32.1795L33.4838 35.0822L36.3865 37.454L38.7583 34.5513L35.8556 32.1795ZM50.3692 44.0387L47.9973 46.9414L50.9 49.3132L53.2719 46.4105L50.3692 44.0387ZM38.7583 34.5513L35.8556 32.1795L33.4838 35.0822L36.3865 37.454L38.7583 34.5513ZM39.5717 69.1013L37.1999 72.004L40.1026 74.3758L42.4744 71.4731L39.5717 69.1013ZM16.35 50.1266L13.4473 47.7547L11.0755 50.6574L13.9782 53.0293L16.35 50.1266ZM30.5811 32.7103L32.9529 29.8076L30.0502 27.4358L27.6784 30.3385L30.5811 32.7103ZM53.8027 51.685L56.7054 54.0569L59.0773 51.1542L56.1746 48.7823L53.8027 51.685ZM58.5464 45.8796L55.6437 43.5078L50.9 49.3132L53.8027 51.685L58.5464 45.8796ZM56.1746 48.7823L63.2901 40.0742L57.4847 35.3305L50.3692 44.0387L56.1746 48.7823ZM63.2901 40.0742C68.5298 33.6617 67.5791 24.2158 61.1666 18.976L56.4229 24.7814C59.6292 27.4013 60.1045 32.1243 57.4847 35.3305L63.2901 40.0742ZM61.1666 18.976C54.7541 13.7363 45.3082 14.687 40.0684 21.0995L45.8739 25.8432C48.4937 22.6369 53.2167 22.1616 56.4229 24.7814L61.1666 18.976ZM40.0684 21.0995L32.9529 29.8076L38.7583 34.5513L45.8739 25.8432L40.0684 21.0995ZM38.2275 29.2768L35.3248 26.9049L30.5811 32.7103L33.4838 35.0822L38.2275 29.2768ZM35.3248 26.9049C32.1185 24.285 27.3955 24.7604 24.7757 27.9666L30.5811 32.7103L35.3248 26.9049ZM24.7757 27.9666L10.5446 45.3829L16.35 50.1266L30.5811 32.7103L24.7757 27.9666ZM10.5446 45.3829C7.92475 48.5891 8.40011 53.3121 11.6064 55.932L16.35 50.1266L10.5446 45.3829ZM11.6064 55.932L34.828 74.9067L39.5717 69.1013L16.35 50.1266L11.6064 55.932ZM34.828 74.9067C38.0343 77.5266 42.7572 77.0512 45.3771 73.845L39.5717 69.1013L34.828 74.9067ZM45.3771 73.845L59.6082 56.4287L53.8027 51.685L39.5717 69.1013L45.3771 73.845ZM59.6082 56.4287C62.228 53.2225 61.7527 48.4995 58.5464 45.8796L53.8027 51.685L59.6082 56.4287ZM48.7766 28.215C50.0865 26.6119 52.448 26.3742 54.0511 27.6841L58.7948 21.8787C53.9854 17.9489 46.9009 18.662 42.9711 23.4713L48.7766 28.215ZM54.0511 27.6841C55.6542 28.9941 55.8919 31.3556 54.582 32.9587L60.3874 37.7024C64.3172 32.893 63.6042 25.8085 58.7948 21.8787L54.0511 27.6841ZM54.582 32.9587L47.4665 41.6668L53.2719 46.4105L60.3874 37.7024L54.582 32.9587ZM52.741 41.136L41.1302 31.6486L36.3865 37.454L47.9973 46.9414L52.741 41.136ZM41.661 36.9231L48.7766 28.215L42.9711 23.4713L35.8556 32.1795L41.661 36.9231ZM41.9435 66.1986L18.7219 47.2239L13.9782 53.0293L37.1999 72.004L41.9435 66.1986ZM19.2527 52.4984L33.4838 35.0822L27.6784 30.3385L13.4473 47.7547L19.2527 52.4984ZM28.2092 35.613L51.4309 54.5878L56.1746 48.7823L32.9529 29.8076L28.2092 35.613ZM50.9 49.3132L36.669 66.7295L42.4744 71.4731L56.7054 54.0569L50.9 49.3132Z"
      fill="#ABC4FF" mask="url(#path-1-inside-1_17360_29207)" />
  </g>
  <defs>
    <linearGradient id="paint0_linear_17360_29207" x1="44.2812" y1="10.0195" x2="60.2862" y2="68.8884"
      gradientUnits="userSpaceOnUse">
      <stop stop-color="#39D0D8" stop-opacity="0.8" />
      <stop offset="1" stop-color="#39D0D8" stop-opacity="0.6" />
    </linearGradient>
  </defs>
</svg>